OpenSim_Sub06_CSBaseline_GRF.mot
version=1
nRows=69
nColumns=19
inDegrees=no
endheader
time	lFx	lFy	lFz	lCOPx	lCOPy	lCOPz	rFx	rFy	rFz	rCOPx	rCOPy	rCOPz	lMx	lMy	lMz	rMx	rMy	rMz
21.23000000	-2.46902043	6.58484710	-0.21134774	0.04878242	0	-0.04709365	-56.29875083	707.68266590	-98.98477608	0.67364117	0	-0.30782585	0	-0.35002918	0	0	0.77185237	0
21.24000000	-0.27762269	-1.26541270	-1.80250043	-0.00011553	0	0.00742930	-51.60676974	708.54456695	-95.62549484	0.66883261	0	-0.30707073	0	-0.00411855	0	0	0.90829009	0
21.25000000	1.74687499	-4.52373340	-2.49554331	-0.01295816	0	0.01841272	-49.01409021	700.76471234	-91.62631645	0.66473435	0	-0.30617969	0	0.08898778	0	0	0.94388562	0
21.26000000	2.93741780	-5.18094910	-2.55282783	-0.01042272	0	0.01289405	-47.48059674	687.19295891	-88.19304123	0.66104033	0	-0.30519953	0	0.07287147	0	0	0.84149269	0.00000000
21.27000000	3.50531272	-4.84386050	-2.44350865	-0.00499053	0	0.00554564	-45.97225963	670.78062136	-85.86472517	0.65728636	0	-0.30419004	0	0.03531652	0	0	0.62263057	0
21.28000000	3.77907919	-4.37734273	-2.20899139	-0.00127711	0	0.00107316	-44.12052059	653.59767293	-84.29250018	0.65302434	0	-0.30324181	0	0.00927163	0	0	0.39985730	0.00000000
21.29000000	3.96071620	-4.02660907	-2.07603315	0.00028588	0	-0.00059680	-42.07730180	636.92346420	-82.71484584	0.64824823	0	-0.30242657	0	-0.00183441	0	0	0.25423921	0
21.30000000	4.12840692	-3.85956023	-1.90526816	0.00056742	0	-0.00076444	-40.09640976	621.60567491	-80.68991073	0.64302976	0	-0.30175918	0	-0.00392492	0	0	0.17283267	-0.00000000
21.31000000	4.29502098	-3.83579455	-1.76263087	0.00038234	0	-0.00045928	-38.18208459	608.39056949	-78.29607607	0.63759255	0	-0.30122109	0	-0.00268242	0	0	0.13600474	0
21.32000000	4.41977749	-3.80041609	-1.67350689	0.00015879	0	-0.00016890	-36.05051052	597.80408578	-75.89567211	0.63215998	0	-0.30077623	0	-0.00112879	0	0	0.07540255	0
21.33000000	4.49840038	-3.70041920	-1.60624706	0.00002726	0	-0.00001513	-33.30477172	589.85000544	-73.87415935	0.62645744	0	-0.30042769	0	-0.00020317	0	0	-0.02615223	-0.00000000
21.34000000	4.53590348	-3.55336353	-1.61576440	-0.00001988	0	0.00003234	-29.77574198	584.50376055	-72.47636355	0.62036906	0	-0.30019046	0	0.00013379	0	0	-0.09030921	0.00000000
21.35000000	4.54256714	-3.36268892	-1.60211312	-0.00002323	0	0.00003008	-25.62340443	581.81300550	-71.69047016	0.61388547	0	-0.30003372	0	0.00016152	0	0	-0.12624066	0
21.36000000	4.54995472	-3.19983087	-1.63004984	-0.00001350	0	0.00001574	-21.16310428	581.88443009	-71.37615041	0.60701778	0	-0.29995249	0	0.00009505	0	0	-0.14460843	-0.00000000
21.37000000	4.54351323	-3.14671688	-1.69281690	-0.00000479	0	0.00000478	-16.68162834	584.88206138	-71.38206072	0.59980741	0	-0.29995000	0	0.00003415	0	0	-0.07963346	0
21.38000000	4.45961092	-3.19525191	-1.71949241	-0.00000034	0	-0.00000026	-12.21689824	590.82428414	-71.56024958	0.59233631	0	-0.29997302	0	0.00000254	0	0	0.06309403	0
21.39000000	4.31162211	-3.32731320	-1.75500709	0.00000094	0	-0.00000144	-7.88478572	599.56347597	-71.77849380	0.58480028	0	-0.29997607	0	-0.00000703	0	0	0.22991021	0
21.40000000	4.18020703	-3.45737280	-1.80473495	0.00000087	0	-0.00000110	-3.75580708	610.74609549	-72.01328318	0.57744788	0	-0.30000362	0	-0.00000678	0	0	0.41390880	0.00000000
21.41000000	4.09157729	-3.49148932	-1.86279211	0.00000067	0	-0.00000068	0.20362599	623.94930391	-72.24581674	0.57057659	0	-0.30009438	0	-0.00000468	0	0	0.59545695	0
21.42000000	4.03041249	-3.48990649	-1.89977771	0.00000093	0	-0.00000074	4.10131233	638.58064548	-72.46771561	0.56385735	0	-0.30021942	0	-0.00000359	0	0	0.77646914	0.00000000
21.43000000	3.97225589	-3.47193970	-1.91723866	0.00000161	0	-0.00000125	8.06777719	653.80168009	-72.78314554	0.55717792	0	-0.30030279	0	-0.00000254	0	0	0.96450713	0
21.44000000	3.89918062	-3.43529792	-1.91589877	0.00000190	0	-0.00000150	12.00209168	668.43622208	-73.24802349	0.55078209	0	-0.30028094	0	0.00000232	0	0	1.08017928	0
21.45000000	3.82521591	-3.41404145	-1.93370318	-0.00000025	0	0.00000014	15.72598269	680.93869862	-73.84064304	0.54473165	0	-0.30014637	0	0.00001632	0	0	1.09965914	0
21.46000000	3.76293032	-3.47808774	-1.98704807	-0.00000806	0	0.00000625	19.15317362	690.04108937	-74.56789954	0.53905963	0	-0.29992623	0	0.00004172	0	0	1.11186920	-0.00000000
21.47000000	3.73062353	-3.59189264	-2.02465134	-0.00002380	0	0.00001870	22.35522709	695.06080402	-75.29734751	0.53369171	0	-0.29965510	0	0.00006635	0	0	1.12555829	0
21.48000000	3.72838724	-3.66426109	-2.08979735	-0.00004227	0	0.00003355	25.42819186	696.16610978	-75.93068270	0.52862451	0	-0.29933841	0	0.00004506	0	0	1.11420712	0.00000000
21.49000000	3.70172571	-3.58984775	-2.17670439	-0.00003908	0	0.00003172	28.45286050	694.06921762	-76.52856852	0.52365632	0	-0.29898847	0	-0.00011366	0	0	1.13527812	0
21.50000000	3.64541320	-3.46272166	-2.25860943	0.00004075	0	-0.00003020	31.50961423	689.81231251	-77.04114162	0.51849122	0	-0.29862287	0	-0.00051853	0	0	1.15913894	0
21.51000000	3.58924327	-3.36314343	-2.31655692	0.00027282	0	-0.00021267	34.68532266	684.50052653	-77.49769265	0.51303457	0	-0.29827052	0	-0.00115515	0	0	1.19535304	0
21.52000000	3.56720658	-3.24745319	-2.37481595	0.00068000	0	-0.00053601	38.11930384	679.06004909	-77.88855634	0.50753122	0	-0.29794780	0	-0.00156725	0	0	1.25243972	0
21.53000000	3.57720891	-3.08756223	-2.43908853	0.00104556	0	-0.00083318	41.75974635	674.02014065	-78.10874959	0.50222935	0	-0.29767347	0	-0.00041384	0	0	1.29409852	0.00000000
21.54000000	3.55345145	-2.95472980	-2.47592752	0.00061972	0	-0.00051609	45.34176276	669.36657593	-78.15296947	0.49725414	0	-0.29745042	0	0.00467696	0	0	1.33826468	0
21.55000000	3.43475298	-3.05736409	-2.41354144	-0.00206899	0	0.00158065	48.59848515	664.64048563	-78.08736568	0.49252894	0	-0.29725105	0	0.01587540	0	0	1.36547832	0.00000000
21.56000000	3.22211281	-3.79424869	-2.32454880	-0.00867865	0	0.00679196	51.59176984	659.31925467	-77.98015147	0.48775718	0	-0.29705202	0	0.03082620	0	0	1.35684815	0.00000000
21.57000000	3.02997762	-5.39655087	-2.36745341	-0.01870146	0	0.01478204	54.54335062	653.22569969	-77.92954365	0.48300209	0	-0.29684011	0	0.03409548	0	0	1.36477142	0
21.58000000	3.17012432	-7.31301956	-2.71148424	-0.02429678	0	0.01946192	57.62361165	646.43912771	-77.98877554	0.47847403	0	-0.29660810	0	-0.01259590	0	0	1.36637773	0.00000000
21.59000000	4.21876428	-6.96909950	-3.55313115	-0.00340681	0	0.00347959	60.91510962	638.94271039	-78.13330240	0.47415838	0	-0.29634564	0	-0.16781514	0	0	1.34717802	0
21.60000000	6.75076367	1.33279057	-4.82131105	0.08170954	0	-0.06315369	64.35502218	630.43980681	-78.19897702	0.46980396	0	-0.29603525	0	-0.46556134	0	0	1.30406694	0.00000000
21.61000000	10.35640950	25.65500708	-5.56286073	0.26285649	0	-0.20637268	67.93691624	620.11263194	-77.93103387	0.46526829	0	-0.29568586	0	-0.78775320	0	0	1.23381927	0
21.62000000	10.95862872	74.34331804	-3.89016094	0.49701252	0	-0.39396313	71.48758031	606.74352952	-77.02424931	0.46069049	0	-0.29536243	0	-0.60248856	0	0	1.17874974	0
21.63000000	4.16929454	150.13330244	-0.01613641	0.66189206	0	-0.53205780	74.57848862	589.16759926	-75.10343574	0.45610992	0	-0.29510645	0	1.09206430	0	0	1.19191349	0
21.64000000	-8.71948785	244.47445852	9.64040182	0.73235539	0	-0.59638128	76.73735013	566.27532635	-71.89034339	0.45145566	0	-0.29488545	0	1.86590443	0	0	1.30730432	0
21.65000000	-22.02796210	337.95737090	23.14893710	0.74572909	0	-0.61304104	77.77112060	536.90274159	-67.12958616	0.44674117	0	-0.29463385	0	1.50473126	0	0	1.49387646	0.00000000
21.66000000	-33.20256724	410.35960544	37.08683968	0.73752923	0	-0.61036694	77.66667101	500.25016376	-60.71696004	0.44226512	0	-0.29443857	0	0.05236117	0	0	1.69335855	0.00000000
21.67000000	-42.21887295	452.39253106	48.48204901	0.72700669	0	-0.60476401	76.19535632	456.44929198	-53.04681348	0.43836052	0	-0.29442908	0	-1.90009380	0	0	1.87958594	0.00000000
21.68000000	-49.02796771	467.61552643	57.52250315	0.71943202	0	-0.60198457	73.01259871	406.59112228	-44.69597645	0.43533981	0	-0.29463275	0	-4.12449609	0	0	2.02223955	0
21.69000000	-53.74851375	467.49324719	65.65313024	0.71426457	0	-0.60217129	67.81097997	352.42806611	-36.30137228	0.43323194	0	-0.29511808	0	-6.70335282	0	0	2.04112092	0.00000000
21.70000000	-56.83216859	464.16374337	73.34456719	0.71018527	0	-0.60387529	60.52488269	296.18709382	-28.60040156	0.43206494	0	-0.29623298	0	-9.27152890	0	0	1.91442082	-0.00000000
21.71000000	-58.48718992	466.08438125	80.18050587	0.70657517	0	-0.60578442	51.30016465	240.57214984	-22.07539699	0.43305249	0	-0.29860998	0	-11.33670786	0	0	1.66073418	0.00000000
21.72000000	-58.80571558	477.35033197	85.63103598	0.70247241	0	-0.60707307	40.58441412	188.31797285	-16.80545877	0.43714783	0	-0.30238607	0	-12.73400457	0	0	1.20950315	0.00000000
21.73000000	-57.69716310	498.38713775	89.00697990	0.69682310	0	-0.60755111	29.09739353	141.98798572	-13.04091334	0.44351629	0	-0.30588320	0	-13.28303416	0	0	0.76500870	-0.00000000
21.74000000	-55.24563096	527.21823085	90.24606552	0.68943979	0	-0.60739359	17.76592984	103.43085635	-10.44453327	0.44370045	0	-0.30281092	0	-12.97200050	0	0	0.35650656	0.00000000
21.75000000	-51.75012596	560.81407589	90.09343433	0.68088075	0	-0.60688536	7.60891531	73.13595418	-8.45617547	0.41709121	0	-0.28024098	0	-12.06434697	0	0	0.01230733	0.00000000
21.76000000	-47.76219135	595.75738404	89.63832209	0.67210336	0	-0.60632339	-0.58579726	50.23445566	-6.97496957	0.33932258	0	-0.22331296	0	-10.91091345	0	0	-0.15643957	0.00000000
21.77000000	-43.81964168	628.48246099	89.71811587	0.66355753	0	-0.60587711	-6.17811459	33.23617823	-5.76878442	0.21119991	0	-0.13476117	0	-9.86052384	0	0	-0.15530084	0.00000000
21.78000000	-40.12785139	656.33067936	90.57497437	0.65538413	0	-0.60560725	-8.46861989	20.50465700	-4.37725959	0.08750424	0	-0.05340786	0	-9.14904196	0	0	-0.08594105	-0.00000000
21.79000000	-36.59388694	678.08527036	91.80240356	0.64765878	0	-0.60551095	-7.04012829	10.70875910	-2.60449147	0.01491981	0	-0.00755970	0	-8.74883105	0	0	-0.02836799	0.00000000
21.80000000	-33.13788567	693.66891303	92.88605688	0.64042514	0	-0.60554471	-3.66184242	4.00050133	-0.64237403	-0.01104111	0	0.00798648	0	-8.49751599	0	0	-0.00021961	0.00000000
21.81000000	-29.87597571	703.09590690	93.65538966	0.63354923	0	-0.60565855	-1.09342299	0.89614514	0.41205635	-0.01284140	0	0.00843624	0	-8.34020428	0	0	0.00730409	-0.00000000
21.82000000	-26.84689687	705.90527639	93.91749004	0.62672090	0	-0.60583332	0.10093052	0.17804565	0.46641065	-0.00744722	0	0.00469921	0	-8.24061360	0	0	0.00595002	-0.00000000
21.83000000	-24.05258254	702.02731380	93.58525641	0.61995405	0	-0.60607951	0.36438006	0.39784110	0.48853639	-0.00262104	0	0.00156598	0	-8.25193562	0	0	0.00287356	-0.00000000
21.84000000	-21.53107526	692.41868201	92.58475220	0.61343352	0	-0.60638566	0.26839658	0.73871328	0.41902136	-0.00015039	0	0.00002399	0	-8.30719539	0	0	0.00074891	-0.00000000
21.85000000	-19.38948037	678.90026793	91.02573613	0.60739180	0	-0.60669706	0.13479491	0.89739506	0.25345340	0.00056986	0	-0.00039361	0	-8.33570203	0	0	-0.00015366	0.00000000
21.86000000	-17.51404869	663.42624633	89.13831692	0.60178033	0	-0.60695002	0.06545499	0.87830389	0.25160493	0.00049933	0	-0.00032383	0	-8.37558105	0	0	-0.00032140	-0.00000000
21.87000000	-15.55253896	647.68483990	86.98295805	0.59626374	0	-0.60714060	0.04296136	0.77346306	0.25499280	0.00025258	0	-0.00015746	0	-8.37956559	0	0	-0.00021862	0.00000000
21.88000000	-13.39953416	633.25703173	84.72358490	0.59068275	0	-0.60729843	0.01920570	0.65394228	0.19703366	0.00007238	0	-0.00004176	0	-8.33480569	0	0	-0.00009146	-0.00000000
21.89000000	-11.22941438	621.16466805	82.59688321	0.58517036	0	-0.60743283	-0.00028310	0.61781098	0.15864787	-0.00000751	0	0.00000751	0	-8.26193720	0	0	-0.00001616	0.00000000
21.90000000	-9.32545817	611.74340961	80.68751251	0.57983371	0	-0.60756676	0.00607366	0.69236543	0.14721502	-0.00002412	0	0.00001660	0	-8.11709580	0	0	0.00001041	-0.00000000
21.91000000	-7.64835851	604.97556818	79.03734400	0.57457762	0	-0.60770484	0.02597643	0.85947179	0.13082257	-0.00001708	0	0.00001125	0	-7.90167829	0	0	0.00001078	-0.00000000
